# xmcd
#
# Track frame offsets:
#	182
#	23277
#	43000
#	70587
#	90072
#	130977
#	151280
#	173045
#	200602
#	225827
#	247075
#	267822
#	282207
#	296712
#	308397
#	321022
#	341767
#
# Disc length: 4720
#
# Revision: 1
# Processed by: cddbd v1.5.1PL0 Copyright (c) Steve Scherf et al.
# Submitted via: Feurio! 1.65 - http://www.feurio.com
# Normalized: r0:DSETVAR1
#
DISCID=d9126e11
DTITLE=Various Artist - Lover's Sensation
DYEAR=1900
DGENRE=blues
TTITLE0=Smoke City - Dreams
TTITLE1=Brighter Side Of Darkness - Love Jones
TTITLE2=Heaven and Earth - Guess Who's Back In Town
TTITLE3=Heaven and Earth - I Can't Seem To Forget You
TTITLE4=Greg Perry - Come Fly With Me
TTITLE5=Dramatics - Ocean Of Thoughts And Dreams
TTITLE6=Bloodstone - We Go A Long Way Back
TTITLE7=T. Connection - Best Of My Love
TTITLE8=D. J. Rogers - Say You Love Me
TTITLE9=Choice 4 - When You're Young and In Love
TTITLE10=Enchantment - Don't Fight The Feeling
TTITLE11=Notations - I'm Still Here
TTITLE12=The Dynamics - Ice Cream Song
TTITLE13=Betty Everett - There'll Come A Day
TTITLE14=Jackson 5 - Big Boy
TTITLE15=Lakeside - Real Love
TTITLE16=Sam Cooke - Red Rooster
EXTD=
EXTT0=
EXTT1=
EXTT2=
EXTT3=
EXTT4=
EXTT5=
EXTT6=
EXTT7=
EXTT8=
EXTT9=
EXTT10=
EXTT11=
EXTT12=
EXTT13=
EXTT14=
EXTT15=
EXTT16=
PLAYORDER=
